<svg width="62" height="67" viewBox="0 0 62 67" fill="none" xmlns="http://www.w3.org/2000/svg">
<path d="M21.1288 40.1898C19.3641 39.4423 17.5994 38.895 15.994 37.6537C17.4402 37.5736 18.5415 38.2544 19.7622 38.5347C18.024 37.1065 16.1664 35.8384 14.8131 33.9831C16.2461 34.9308 17.679 35.8651 19.112 36.8128C19.1518 36.7728 19.1916 36.7461 19.2181 36.706C18.2496 35.6916 17.2942 34.6905 16.3257 33.6761C16.3655 33.6094 16.4053 33.5426 16.4451 33.4759C16.8431 33.6895 17.3075 33.8229 17.626 34.1299C18.913 35.3446 20.1469 36.6126 21.3941 37.8673C21.7259 38.201 22.0178 38.548 22.3893 38.9484C22.6546 38.6948 22.8537 38.4813 23.0659 38.3077C23.4375 38.0274 23.3711 37.7605 23.1456 37.4135C21.487 34.9041 19.2845 32.9553 16.7237 31.4737C14.76 30.3392 12.6371 29.485 10.5938 28.4972C9.71806 28.0701 8.85563 27.6163 7.97992 27.1758C8.01972 27.069 8.04626 26.9622 8.08606 26.8555C8.73621 26.9889 9.39962 27.1091 10.1957 27.2692C8.93523 26.1881 7.51553 25.4807 6.71943 24.1059C6.75924 24.0525 6.78577 23.9857 6.82558 23.9323C8.41777 24.9201 9.9967 25.9078 11.7614 27.0023C10.5805 25.3872 9.51903 23.9457 8.47084 22.5041C8.52391 22.4507 8.57699 22.3974 8.64333 22.344C9.18733 22.8779 9.75786 23.3717 10.2621 23.9323C11.6154 25.454 12.8892 27.0557 14.2956 28.5106C14.9458 29.178 15.8347 29.6051 16.6043 30.1523C17.6525 30.8865 18.6874 31.6339 19.8285 32.4481C19.7489 32.2079 19.7223 32.0477 19.6427 31.9276C17.4535 28.2169 15.0519 24.6398 12.0002 21.5698C11.4695 21.0359 10.753 20.6488 10.063 20.3285C8.88216 19.7946 7.63494 19.3941 6.42753 18.927C5.69777 18.6467 4.98128 18.3263 4.47709 17.6856C4.50362 17.6055 4.53016 17.5388 4.55669 17.4587C5.60489 17.7257 6.66636 18.006 7.71455 18.2729C5.65797 16.4043 3.41562 14.7225 2.03572 12.2131C3.90655 13.7614 5.77738 15.3098 7.63494 16.8714C7.68801 16.8314 7.74109 16.778 7.78089 16.738C6.7725 15.2964 5.76411 13.8415 4.76899 12.4C4.83533 12.3332 4.90168 12.2665 4.96802 12.1998C5.28646 12.4667 5.65796 12.6936 5.91006 13.014C6.99806 14.4288 7.99319 15.9371 9.14753 17.3119C10.1294 18.4731 11.297 19.4876 12.3186 20.6088C13.2607 21.6365 14.1231 22.731 15.0121 23.7989C15.1448 23.959 15.2907 24.1325 15.4234 24.2927C15.4765 24.266 15.5296 24.2393 15.5959 24.1993C15.4234 23.7989 15.2509 23.3851 15.0652 22.998C14.1895 21.1694 13.4199 19.2607 12.385 17.5255C10.9785 15.1763 9.25367 13.054 7.03787 11.3989C6.46733 10.9718 5.73758 10.7849 5.0609 10.5046C4.05251 10.0775 2.96451 9.79718 2.14187 8.86284C3.33602 8.58254 4.29133 9.3834 5.55182 9.58361C4.45055 8.38232 2.83182 7.94185 2.30109 6.44692C2.35416 6.36683 2.39397 6.30009 2.44704 6.22C2.96451 6.51365 3.49524 6.82065 4.10558 7.16769C3.62792 6.31344 3.19006 5.53927 2.76548 4.75176C2.80528 4.71172 2.84509 4.67168 2.88489 4.63164C3.16353 4.85854 3.48196 5.04541 3.69426 5.31237C5.06089 7.03421 6.37445 8.7961 7.75436 10.4913C8.96177 11.9728 10.2355 13.4144 11.5756 14.8159C11.098 13.708 10.6601 12.5868 10.1294 11.5057C9.46596 10.1309 8.97504 8.66262 7.8605 7.55477C6.34792 6.05983 4.86187 4.55155 3.37582 3.02992C2.95124 2.58945 2.59299 2.09558 2.28782 1.53498C4.07904 2.38923 5.29972 3.93756 6.7327 5.23228C6.78577 5.19224 6.83884 5.16554 6.89192 5.1255C6.08255 3.45704 5.27318 1.80193 4.45055 0.133476C4.51689 0.0934335 4.59651 0.0400429 4.66285 0C5.94987 1.92206 7.25016 3.84412 8.53718 5.76618C8.57698 5.75284 8.63006 5.73949 8.66986 5.72614C8.41777 4.35134 8.16567 2.98987 7.92684 1.61507C8.00645 1.58837 8.08606 1.56168 8.16567 1.54833C8.27182 1.82863 8.4045 2.09558 8.45757 2.38923C8.70967 3.63056 8.85562 4.89859 9.21387 6.09988C9.67826 7.62151 10.3019 9.08975 10.8989 10.558C11.2306 11.3855 11.6552 12.1864 12.1462 12.9873C12.1992 10.4646 11.4429 7.9819 11.7348 5.45919C11.8145 5.44584 11.8808 5.43249 11.9604 5.4058C12.186 6.00644 12.3983 6.60709 12.6238 7.20773C12.6636 7.20773 12.7034 7.20773 12.7432 7.20773C12.9423 6.11322 13.1413 5.00537 13.3668 3.80408C14.0037 4.2579 13.9639 4.76511 13.9108 5.23228C13.6853 7.16769 13.4332 9.1031 13.1944 11.0252C13.1678 11.212 13.1944 11.3989 13.2607 11.5991C13.9904 10.3845 14.2691 8.94292 15.2509 7.90181C15.3173 7.91516 15.3836 7.94185 15.4367 7.9552C15.4234 8.15541 15.45 8.36897 15.3836 8.54249C15.0519 9.55692 14.7202 10.558 14.3487 11.5591C13.7384 13.1875 13.4066 14.8559 13.6985 16.5778C13.8578 17.4988 14.2823 18.3797 14.6671 19.2473C15.6357 21.463 16.6308 23.6654 17.6525 25.8544C18.1169 26.8555 18.6476 27.8165 19.1518 28.8042C19.2314 28.7909 19.2978 28.7642 19.3774 28.7508C19.2845 28.2169 19.2314 27.6697 19.112 27.1358C18.8068 25.8544 18.4619 24.573 18.1434 23.2916C17.8382 22.0904 17.5065 20.9024 17.2544 19.6878C17.1085 18.967 17.082 18.2195 17.0023 17.4854C17.0952 17.4587 17.1748 17.4454 17.2677 17.4187C17.5994 18.2062 17.9444 19.0071 18.3424 19.9681C18.568 18.6066 18.767 17.4053 18.9661 16.204C19.0324 16.204 19.0987 16.2174 19.1518 16.2174C19.2447 17.8458 19.3376 19.4876 19.4437 21.116C19.4968 21.1293 19.5499 21.1293 19.6162 21.1427C20.0806 20.1016 20.2 18.8869 21.2747 18.1128C21.1951 18.5933 21.142 19.0604 21.0359 19.541C20.6511 21.2628 20.1337 22.9713 19.8816 24.7198C19.7489 25.6809 20.0275 26.6953 20.1735 27.683C20.3725 28.9777 20.399 30.3659 20.9165 31.5138C21.8055 33.4759 23.0261 35.2778 24.1539 37.2399C24.4857 36.9196 24.6714 36.7194 24.8837 36.5325C25.2021 36.2522 25.2021 35.9853 25.0429 35.5982C24.4591 34.2367 23.9019 32.8619 23.3711 31.4871C23.2119 31.06 23.1854 30.5928 23.1058 30.139C23.1854 30.1123 23.2517 30.0723 23.3313 30.0456C23.7824 30.8998 24.2468 31.7407 24.8041 32.7818C24.698 30.6729 24.1672 28.7508 24.7378 26.8154C25.5073 28.0568 25.242 29.565 25.7727 31.0466C26.0779 29.9655 26.3432 29.0311 26.6086 28.0701C27.272 28.257 27.272 28.6707 27.1791 29.0979C26.927 30.3525 26.6351 31.6072 26.383 32.8619C26.2769 33.4225 26.2371 33.9965 26.184 34.5704C26.1707 34.7039 26.2769 34.8374 26.3565 35.091C29.2888 32.1945 32.1547 29.3648 35.0207 26.5351C33.5479 24.88 33.057 22.9846 33.5346 20.9158C33.7204 20.1283 34.1317 19.3007 34.6757 18.7134C39.7973 13.094 44.9719 7.51473 50.1332 1.92206C50.1863 1.85533 50.2659 1.81528 50.3323 1.76189C51.2212 2.2691 51.3407 2.90979 50.7038 3.64391C46.8029 8.15541 42.8888 12.6669 39.0012 17.1918C38.7358 17.4988 38.3776 17.8325 38.8021 18.2863C39.1604 18.66 39.8636 18.7401 40.2617 18.3931C40.8189 17.8858 41.3364 17.3386 41.8671 16.8047C45.622 12.9739 49.3902 9.14314 53.1451 5.31237C53.3044 5.15219 53.4238 4.96533 53.5565 4.8185C54.5516 5.35241 54.6843 5.99309 54.0076 6.76726C50.1465 11.2254 46.2854 15.6968 42.4376 20.1549C42.1192 20.5153 41.615 20.8891 42.1856 21.4363C42.5969 21.8368 43.3134 21.77 43.791 21.2895C45.9935 19.0471 48.1828 16.778 50.4119 14.5489C52.6144 12.3599 54.8435 10.2109 57.1124 8.00859C57.8421 8.38232 57.9881 9.0764 57.3645 9.79718C53.4901 14.2686 49.6158 18.7534 45.7415 23.2383C45.4495 23.5719 44.9055 23.9056 45.423 24.4662C45.8476 24.9334 46.5508 24.9067 47.0815 24.3862C48.7401 22.7177 50.3854 21.0359 52.0306 19.3541C54.6179 16.7113 57.2052 14.0551 59.8058 11.4122C59.965 11.2521 60.1243 11.1186 60.4294 10.8249C60.6948 11.3588 60.9204 11.8127 61.1459 12.2798C59.5935 13.9616 58.0809 15.6167 56.5684 17.2585C52.9727 21.156 49.3372 25.0135 45.8078 28.9644C43.6451 31.3937 40.2749 31.4471 38.2183 29.4182C38.152 29.3515 38.0857 29.3114 37.9662 29.218C37.7539 29.4716 37.5284 29.7119 37.3294 29.9655C35.4187 32.2479 33.5081 34.5304 31.5975 36.7861C31.3056 37.1332 31.2259 37.4268 31.3852 37.8673C31.7036 38.7883 31.9424 39.7359 32.2343 40.6703C32.2874 40.8571 32.3936 41.0307 32.5395 41.2042C32.7518 39.6826 32.1813 38.1209 32.8978 36.4791C33.0835 37.1198 33.2958 37.6137 33.3621 38.1209C33.5346 39.5758 33.601 41.0307 33.8 42.4856C34.0654 44.421 34.4501 46.343 35.5912 47.9981C36.6129 49.4931 37.5815 51.0414 38.6695 52.4963C39.1338 53.1236 39.7973 53.6175 40.4076 54.1247C41.8406 55.3126 43.2868 56.4739 44.7331 57.6485C44.8657 57.7553 45.0117 57.822 45.2107 57.9421C43.7645 56.2069 42.305 54.5785 40.9781 52.8433C39.6513 51.1215 38.1653 49.5064 37.2497 47.5043C37.3161 47.4509 37.3957 47.3842 37.462 47.3308C38.3908 48.4386 39.3196 49.5331 40.3545 50.7478C39.6115 48.9458 38.9348 47.2907 38.2581 45.6223C38.3377 45.5822 38.4174 45.5555 38.497 45.5155C39.5584 47.5577 40.4209 49.72 41.9069 51.5219C41.6681 49.9602 41.4293 48.4119 41.1904 46.8502C42.1059 47.5176 42.159 48.492 42.3713 49.3863C42.5969 50.374 42.7826 51.3751 42.9684 52.3762C43.247 53.8444 43.791 55.1658 44.879 56.247C46.3253 57.7019 47.6123 59.3703 49.1912 60.6651C50.8099 61.9865 52.6675 63.0142 54.472 64.0954C55.8784 64.923 57.3645 65.6304 58.8107 66.3778C58.9434 66.4446 59.0628 66.538 59.1159 66.7249C58.2136 66.3512 57.2583 66.0442 56.3959 65.5903C54.0474 64.3357 51.752 62.9609 49.3902 61.7195C47.1479 60.5449 44.8923 59.3303 42.5305 58.4226C41.2302 57.9288 39.7044 58.0222 38.2847 57.9021C37.2497 57.8087 36.2148 57.822 35.1799 57.7286C34.8217 57.7019 34.4767 57.515 34.1317 57.2881C35.2728 56.6207 36.4935 57.0078 37.6876 56.7942C36.0025 56.2737 34.3307 55.7531 32.6457 55.2326C32.6589 55.1525 32.6722 55.0857 32.6987 55.0057C33.3223 54.6453 33.9725 54.8188 34.6226 54.9656C35.2462 55.0991 35.8698 55.2726 36.5333 55.286C34.9676 54.3249 33.4019 53.3505 31.8363 52.3895C33.4683 52.5497 34.8482 53.3105 36.2414 54.0313C37.8601 54.8855 39.439 55.8332 41.0577 56.7008C41.7477 57.0612 42.4907 57.3281 43.2072 57.6351C43.247 57.5817 43.2736 57.5284 43.3134 57.475C42.8224 57.0612 42.3315 56.6608 41.8406 56.2336C38.6695 53.4573 35.0472 51.3884 31.2658 49.6132C30.3237 49.1727 29.1694 49.1727 28.1079 48.9458C27.073 48.7323 26.038 48.532 25.0164 48.2784C24.6979 48.1984 24.406 47.9714 23.9947 47.7579C25.0164 47.1439 25.9452 47.7445 27.0332 47.6378C25.9054 47.0505 24.9235 46.5566 23.9019 46.036C22.8802 47.2507 21.8718 48.452 20.8634 49.6532C16.538 54.8321 12.2125 59.9977 7.88704 65.1766C6.81231 66.4579 5.44567 66.8984 3.84021 66.4713C2.20821 66.0308 1.2927 64.8963 0.960993 63.2411C0.616018 61.5326 1.08041 60.1445 2.3409 58.9032C8.45758 52.9101 14.5344 46.8903 20.6246 40.8705C20.7175 40.6302 20.89 40.43 21.1288 40.1898ZM30.8014 37.6404C29.9522 38.6414 29.1826 39.5224 28.4529 40.4434C28.3335 40.5902 28.3335 40.9506 28.4263 41.1374C29.3684 43.0595 30.6023 44.7814 32.0884 46.3163C32.4864 46.7301 32.8314 47.1973 33.2162 47.6111C33.6938 48.1316 34.2113 48.6121 34.7155 49.1193C34.7951 49.0526 34.8747 48.9992 34.9543 48.9325C34.2644 47.7178 33.5744 46.4899 32.8712 45.2752C31.9026 43.5934 30.9075 41.9116 29.9655 40.2165C29.793 39.9095 29.8062 39.4823 29.7266 39.1086C29.8195 39.0686 29.9124 39.0285 30.0053 38.9885C30.5891 39.9362 31.1861 40.8838 31.7699 41.8182C31.823 41.7915 31.8628 41.7781 31.9159 41.7514C31.5709 40.4434 31.1994 39.1086 30.8014 37.6404ZM25.3879 44.1006C27.9487 46.9437 31.2127 48.5187 34.5032 50.0804C31.8363 47.6644 29.6205 44.7413 26.3565 42.926C26.038 43.3265 25.7196 43.7135 25.3879 44.1006Z" fill="#417F56"/>
</svg>
